<svg width="50" height="51" viewBox="0 0 50 51" fill="none" xmlns="http://www.w3.org/2000/svg">
<path d="M6.68005 2.25C6.68005 1.00736 7.68741 0 8.93005 0H17.1801C18.4227 0 19.4301 1.00736 19.4301 2.25V13.8919C19.4301 14.6395 19.0588 15.3382 18.4393 15.7566L10.1893 21.3279C8.69494 22.337 6.68005 21.2664 6.68005 19.4633V2.25Z" fill="white"/>
<path d="M6.68005 33.275C6.68005 32.0324 7.68741 31.025 8.93005 31.025H17.1801C18.4227 31.025 19.4301 32.0324 19.4301 33.275V48.75C19.4301 49.9926 18.4227 51 17.1801 51H8.93005C7.68741 51 6.68005 49.9926 6.68005 48.75V33.275Z" fill="white"/>
<path d="M36.4301 2.25C36.4301 1.00736 37.4374 0 38.6801 0H46.9301C48.1727 0 49.1801 1.00736 49.1801 2.25V30.8669C49.1801 32.7428 47.0194 33.7949 45.5426 32.6381L37.2926 26.1756C36.7481 25.7491 36.4301 25.096 36.4301 24.4044V2.25Z" fill="white"/>
<path d="M28.6742 13.9842C30.169 12.9793 32.1798 14.0506 32.1796 15.8517L32.1786 24.2936C32.1785 25.0457 31.8026 25.7481 31.1768 26.1653L10.1783 40.1673C8.68305 41.1643 6.68003 40.0925 6.68003 38.2953L6.68006 29.9693C6.68006 29.2201 7.05296 28.5201 7.67471 28.1021L28.6742 13.9842Z" fill="white"/>
<rect x="27.9301" y="38.25" width="4.25" height="4.25" rx="1.5" fill="white"/>
<rect x="27.9301" y="46.75" width="4.25" height="4.25" rx="1.5" fill="white"/>
<rect x="36.4301" y="38.25" width="4.25" height="4.25" rx="1.5" fill="white"/>
<rect x="36.4301" y="46.75" width="4.25" height="4.25" rx="1.5" fill="white"/>
</svg>
